<svg width="37" height="37" viewBox="0 0 37 37" fill="none" xmlns="http://www.w3.org/2000/svg">
<circle cx="18.5" cy="18.5" r="18.5" fill="#2C2C2C"/>
<path d="M21.9538 13.7784C20.7269 13.0789 19.7739 12.5355 18.9999 12.183C18.2231 11.8292 17.5487 11.6294 16.893 11.6974C15.8523 11.8054 14.9049 12.3447 14.2875 13.1839C13.8975 13.714 13.7352 14.3943 13.6569 15.2366C13.579 16.0756 13.579 17.1629 13.579 18.5613V18.6196C13.579 20.018 13.579 21.1053 13.6569 21.9442C13.7352 22.7865 13.8975 23.4669 14.2875 23.997C14.9049 24.8362 15.8523 25.3754 16.893 25.4835C17.5487 25.5515 18.2231 25.3517 18.9999 24.9979C19.7739 24.6454 20.7269 24.102 21.9538 23.4025L22.0036 23.3741C23.2304 22.6746 24.1834 22.1312 24.8796 21.6454C25.5778 21.1583 26.0924 20.6802 26.3622 20.0817C26.7901 19.1326 26.7901 18.0483 26.3622 17.0992C26.0924 16.5007 25.5778 16.0226 24.8796 15.5354C24.1834 15.0497 23.2304 14.5063 22.0036 13.8068L21.9538 13.7784Z" fill="#959595"/>
</svg>
