<svg width="31" height="31" viewBox="0 0 31 31" fill="none" xmlns="http://www.w3.org/2000/svg">
<path d="M21.2703 18.7652C21.6469 19.1452 22.2603 19.148 22.6403 18.7714C23.0203 18.3947 23.023 17.7814 22.6464 17.4013L20.3488 15.0831C19.4835 14.21 18.7762 13.4964 18.146 12.9903C17.4907 12.4641 16.8256 12.0831 16.0272 11.9813C15.6771 11.9367 15.3229 11.9367 14.9728 11.9813C14.1744 12.0831 13.5093 12.4641 12.854 12.9903C12.2238 13.4964 11.5166 14.21 10.6512 15.0831L8.35362 17.4013C7.97699 17.7814 7.97972 18.3947 8.35973 18.7714C8.73973 19.148 9.35311 19.1452 9.72974 18.7652L11.9867 16.4881C12.9026 15.5639 13.533 14.9299 14.0672 14.501C14.586 14.0843 14.9193 13.9413 15.2178 13.9033C15.4052 13.8794 15.5948 13.8794 15.7822 13.9033C16.0807 13.9413 16.414 14.0843 16.9328 14.501C17.467 14.9299 18.0974 15.5639 19.0133 16.4881L21.2703 18.7652Z" fill="#8C8989"/>
</svg>
