<svg width="72" height="72" viewBox="0 0 72 72" fill="none" xmlns="http://www.w3.org/2000/svg">
<circle cx="36" cy="36" r="36" fill="#42C83C"/>
<path d="M33.375 25.5C33.375 25.0168 32.9832 24.625 32.5 24.625C32.0168 24.625 31.625 25.0168 31.625 25.5V46.5C31.625 46.9832 32.0168 47.375 32.5 47.375C32.9832 47.375 33.375 46.9832 33.375 46.5L33.375 25.5Z" fill="white"/>
<path d="M40.375 25.5C40.375 25.0168 39.9832 24.625 39.5 24.625C39.0168 24.625 38.625 25.0168 38.625 25.5L38.625 46.5C38.625 46.9832 39.0168 47.375 39.5 47.375C39.9833 47.375 40.375 46.9832 40.375 46.5V25.5Z" fill="white"/>
</svg>
